<svg xmlns="http://www.w3.org/2000/svg" width="44.228" height="20" viewBox="0 0 44.228 20"><path d="M43.219,10.329c-.828-.378-1.719-.764-2.58-1.137A24.768,24.768,0,0,1,35.7,6.72c-.053-.052-5.382-5.238-8.842-6.2C22.106-.8,13.108.5,10.477,1.323,7.892,2.131,5.536,4.4,4.27,5.613l-.176.169A24.425,24.425,0,0,1,.824,8.113,1.743,1.743,0,0,0,0,9.735l.416,5.29a1.877,1.877,0,0,0,1.862,1.72H7.627a.343.343,0,0,0,.205-.069,3.555,3.555,0,0,0,7.083.07H29.741a3.556,3.556,0,0,0,7.084-.07.342.342,0,0,0,.205.069h4.79A1.939,1.939,0,0,0,43.746,15.1l.459-2.936A1.727,1.727,0,0,0,43.219,10.329Zm-31.843,8.94A2.867,2.867,0,1,1,14.243,16.4,2.87,2.87,0,0,1,11.376,19.268Zm21.9,0A2.867,2.867,0,1,1,36.147,16.4,2.87,2.87,0,0,1,33.281,19.268Zm10.244-7.212-.459,2.936a1.254,1.254,0,0,1-1.245,1.065h-4.79a.343.343,0,0,0-.205.069,3.556,3.556,0,0,0-7.084-.07H14.916a3.555,3.555,0,0,0-7.083.07.342.342,0,0,0-.205-.069H2.281a1.183,1.183,0,0,1-1.174-1.085L.691,9.681a1.056,1.056,0,0,1,.5-.983A25.019,25.019,0,0,0,4.57,6.281l.178-.17c1.225-1.177,3.505-3.37,5.935-4.129,2.709-.846,11.56-2.025,15.995-.794,2.857.793,7.462,4.952,8.54,6.022.69.686,2.756,1.58,5.148,2.616.858.371,1.745.755,2.567,1.131A1.038,1.038,0,0,1,43.525,12.056Z" transform="translate(0.002 0.042)" fill="#5b4a23"/><path d="M115.074,35.905c-1.4-1.159-4.222-3.27-5.958-3.824a19.266,19.266,0,0,0-5.832-.319l-.026,0a.23.23,0,0,0-.059.008,42.454,42.454,0,0,0-7.262,1,9.73,9.73,0,0,0-4.53,2.951.707.707,0,0,0,.525,1.181h22.786a.559.559,0,0,0,.357-.989Zm-23.314.36a.185.185,0,0,1,.033-.206,9.2,9.2,0,0,1,4.273-2.8A40.2,40.2,0,0,1,103,32.289v4.089H91.933A.184.184,0,0,1,91.76,36.265Zm23,.084a.038.038,0,0,1-.04.028h-11.2V32.26c.634-.031,1.251-.047,1.837-.047a13.336,13.336,0,0,1,3.6.36c1.661.53,4.418,2.593,5.785,3.729A.038.038,0,0,1,114.757,36.35Z" transform="translate(-83.361 -28.964)" fill="#5b4a23"/><circle cx="1.57" cy="1.57" r="1.57" transform="translate(31.713 14.873)" fill="#5b4a23"/><circle cx="1.57" cy="1.57" r="1.57" transform="translate(9.808 14.873)" fill="#5b4a23"/></svg>