<svg xmlns="http://www.w3.org/2000/svg" width="109.909" height="94.154" viewBox="0 0 109.909 94.154"><path d="M122.307,41.973a1.067,1.067,0,0,1-.174-.019L76.271,30.321,30.41,41.944a.718.718,0,0,1-.881-.523.725.725,0,0,1,.523-.881L76.087,28.879a.747.747,0,0,1,.358,0l46.035,11.661a.728.728,0,0,1-.174,1.432Z" transform="translate(-21.001 -28.857)" fill="#109972"/><path d="M122.285,126.1H29.576a.726.726,0,1,1,0-1.452h92.71a.726.726,0,0,1,0,1.452Z" transform="translate(-20.98 -31.948)" fill="#109972"/><g transform="translate(20.992 26.828)"><g transform="translate(13.771 3.416)"><path d="M56.88,65.131a4.474,4.474,0,0,1,4.568-4.771,5.164,5.164,0,0,1,2.323.542.469.469,0,0,1,.29.416.436.436,0,0,1-.435.445c-.077,0-.135-.029-.484-.184a3.781,3.781,0,0,0-1.674-.358,3.543,3.543,0,0,0-3.629,3.89c0,2.187,1.181,3.919,3.706,3.919a4.426,4.426,0,0,0,1.81-.329,1.368,1.368,0,0,1,.416-.126.43.43,0,0,1,.416.435.457.457,0,0,1-.261.416,6.43,6.43,0,0,1-2.468.465C58.322,69.9,56.88,67.57,56.88,65.131Z" transform="translate(-56.648 -60.118)" fill="#109972"/><path d="M61.479,70.136c-3.348,0-4.839-2.516-4.839-5.013a4.7,4.7,0,0,1,4.81-5.013,5.358,5.358,0,0,1,2.439.571.7.7,0,0,1,.416.629.675.675,0,0,1-.677.687c-.126,0-.194-.029-.5-.174l-.077-.039a3.485,3.485,0,0,0-1.577-.339c-2.052,0-3.387,1.432-3.387,3.648,0,2.3,1.3,3.677,3.465,3.677a4.254,4.254,0,0,0,1.723-.31l.077-.029a1.384,1.384,0,0,1,.435-.116.669.669,0,0,1,.658.677.7.7,0,0,1-.4.639A6.43,6.43,0,0,1,61.479,70.136ZM61.45,60.6a4.238,4.238,0,0,0-4.326,4.529c0,2.09,1.142,4.529,4.355,4.529a6.363,6.363,0,0,0,2.361-.435.218.218,0,0,0,.126-.2.19.19,0,0,0-.174-.194,1.255,1.255,0,0,0-.261.077l-.077.029a4.843,4.843,0,0,1-1.9.339c-2.429,0-3.948-1.6-3.948-4.161a3.791,3.791,0,0,1,3.871-4.132,4.21,4.21,0,0,1,1.781.377l.068.029a1.985,1.985,0,0,0,.3.126.2.2,0,0,0,.194-.2c0-.087-.029-.126-.165-.2A5.063,5.063,0,0,0,61.45,60.6Z" transform="translate(-56.64 -60.11)" fill="#109972"/></g><g transform="translate(24.803 3.416)"><path d="M75.529,68.034a3.687,3.687,0,0,0,.1.91c.029.135.135.435.135.513a.483.483,0,0,1-.513.445c-.619,0-.677-1.084-.677-1.81a4.062,4.062,0,0,1-3.426,1.81A2.593,2.593,0,0,1,68.29,67.27c0-1.239.6-2.448,2.855-2.835.406-.077,2.235-.31,2.584-.406a.9.9,0,0,0,.823-1.006c0-1.268-1.258-1.8-2.584-1.8a4.436,4.436,0,0,0-1.994.406c-.29.135-.368.174-.484.174a.4.4,0,0,1-.406-.416c0-.29.232-.406.571-.561a5.715,5.715,0,0,1,2.294-.465,3.88,3.88,0,0,1,3.039,1.19,3.234,3.234,0,0,1,.542,2.187Zm-.968-3.474c-.387.252-.6.29-2.506.571-1.394.213-2.806.416-2.806,2.11a1.717,1.717,0,0,0,1.965,1.8,3.682,3.682,0,0,0,3.348-2.323Z" transform="translate(-68.048 -60.118)" fill="#109972"/><path d="M75.24,70.136c-.658,0-.842-.755-.9-1.394a4.26,4.26,0,0,1-3.2,1.394,2.828,2.828,0,0,1-3.1-2.874c0-1.694,1.026-2.729,3.048-3.077.165-.029.561-.087,1.006-.155.61-.087,1.355-.194,1.558-.242.319-.077.639-.155.639-.774,0-1.152-1.21-1.558-2.342-1.558a4.3,4.3,0,0,0-1.887.377,1.339,1.339,0,0,1-.59.194.651.651,0,0,1-.648-.658c0-.455.368-.619.716-.774a6,6,0,0,1,2.39-.484A4.029,4.029,0,0,1,75.153,61.4a3.437,3.437,0,0,1,.59,2.332v4.287a4.315,4.315,0,0,0,.087.861c.01.058.039.135.058.213a1.249,1.249,0,0,1,.087.348A.691.691,0,0,1,75.24,70.136Zm-.445-2.816v.765c0,1.365.271,1.568.435,1.568.087,0,.271-.048.271-.2a1.807,1.807,0,0,1-.058-.213,2.015,2.015,0,0,1-.068-.252,4.465,4.465,0,0,1-.1-.968V63.729a3,3,0,0,0-.484-2.032,3.6,3.6,0,0,0-2.845-1.1,5.583,5.583,0,0,0-2.2.445c-.358.165-.426.213-.426.339a.162.162,0,0,0,.165.174,1.144,1.144,0,0,0,.377-.145,4.786,4.786,0,0,1,2.1-.426c1.723,0,2.826.8,2.826,2.042a1.125,1.125,0,0,1-1.006,1.239c-.223.058-.929.155-1.606.252-.435.058-.832.116-.987.145-1.79.31-2.652,1.161-2.652,2.594a2.351,2.351,0,0,0,2.613,2.39,3.8,3.8,0,0,0,3.223-1.713Zm-3.581,1.955a1.953,1.953,0,0,1-2.206-2.042c0-1.877,1.577-2.119,2.961-2.342,1.916-.281,2.119-.329,2.458-.542l.368-.242-.019,2.7A3.947,3.947,0,0,1,71.214,69.275Zm3.1-4.326a12.862,12.862,0,0,1-2.235.416c-1.413.223-2.594.406-2.594,1.868,0,.581.223,1.558,1.723,1.558a3.48,3.48,0,0,0,3.106-2.129Z" transform="translate(-68.04 -60.11)" fill="#109972"/></g><g transform="translate(36.174)"><path d="M81.772,59.24c0-.774,0-2.4,2.119-2.4.213,0,.648,0,.648.445a.42.42,0,0,1-.445.435c-1.316,0-1.365.619-1.365,1.529v1.239h1.442a.414.414,0,0,1,.435.435.4.4,0,0,1-.435.435H82.73v7.965a.438.438,0,0,1-.465.465.45.45,0,0,1-.494-.465V61.359h-1.3a.419.419,0,0,1-.435-.435.406.406,0,0,1,.435-.435h1.3V59.24Z" transform="translate(-79.798 -56.588)" fill="#109972"/><path d="M82.258,70.022a.689.689,0,0,1-.735-.706V61.593H80.467a.677.677,0,1,1,0-1.355h1.055V59.222c0-.726,0-2.642,2.361-2.642.59,0,.89.232.89.687a.663.663,0,0,1-.687.677c-1.074,0-1.123.377-1.123,1.287v1h1.2a.655.655,0,0,1,.677.677.64.64,0,0,1-.677.677h-1.2v7.723A.676.676,0,0,1,82.258,70.022Zm-1.8-9.29a.194.194,0,0,0,0,.387H82v8.206c0,.058,0,.223.252.223a.2.2,0,0,0,.223-.223V61.119h1.684c.135,0,.194-.058.194-.194a.172.172,0,0,0-.194-.194H82.471V59.251c0-.832,0-1.771,1.606-1.771a.181.181,0,0,0,.2-.194c0-.126-.029-.2-.406-.2C82.142,57.083,82,58.2,82,59.241v1.5H80.458Z" transform="translate(-79.79 -56.58)" fill="#109972"/></g><g transform="translate(44.323 3.416)"><path d="M89.428,65.46a3.34,3.34,0,0,0,3.629,3.581,5.661,5.661,0,0,0,1.965-.329,1.48,1.48,0,0,1,.416-.126.446.446,0,0,1,.435.435.483.483,0,0,1-.31.435,7.027,7.027,0,0,1-2.535.445c-3.765,0-4.558-2.932-4.558-4.713,0-2.632,1.5-4.829,4.074-4.829a4,4,0,0,1,3.89,4.152c0,.948-.639.948-1.316.948Zm5.69-.871c.2,0,.387,0,.387-.252,0-.619-.6-3.116-2.971-3.116-1.761,0-2.961,1.423-3.087,3.358h5.671Z" transform="translate(-88.218 -60.118)" fill="#109972"/><path d="M93.01,70.136c-3.532,0-4.8-2.555-4.8-4.955,0-2.99,1.771-5.071,4.316-5.071A4.213,4.213,0,0,1,96.658,64.5c0,1.19-.9,1.19-1.558,1.19H89.671a3.016,3.016,0,0,0,3.368,3.1,5.553,5.553,0,0,0,1.887-.31l.106-.039a1.116,1.116,0,0,1,.387-.1.685.685,0,0,1,.677.677.718.718,0,0,1-.455.658A7.47,7.47,0,0,1,93.01,70.136ZM92.536,60.6c-2.255,0-3.832,1.887-3.832,4.587,0,1.045.31,4.471,4.316,4.471a6.776,6.776,0,0,0,2.439-.426c.116-.048.174-.116.174-.213a.206.206,0,0,0-.194-.194,1.432,1.432,0,0,0-.232.068l-.106.039a6,6,0,0,1-2.052.339c-1.694,0-3.735-.658-3.871-3.813l-.01-.252H95.11c.745,0,1.074-.029,1.074-.706A3.738,3.738,0,0,0,92.536,60.6Zm2.574,4.219H89.187l.019-.261c.135-2.148,1.471-3.59,3.319-3.59,2.661,0,3.213,2.806,3.213,3.358C95.739,64.823,95.275,64.823,95.11,64.823Zm-5.41-.484h5.4a.888.888,0,0,0,.174-.01c-.029-.445-.532-2.865-2.758-2.865A2.918,2.918,0,0,0,89.7,64.339Z" transform="translate(-88.21 -60.11)" fill="#109972"/></g><g transform="translate(0 21.803)"><path d="M42.66,79.825a.484.484,0,0,1,.968,0v4.848c0,1.519,0,3.358,2.265,3.358a2.77,2.77,0,0,0,2.4-1.287,3.933,3.933,0,0,0,.416-2.071V79.825a.484.484,0,0,1,.968,0v8.613a.449.449,0,0,1-.484.465.442.442,0,0,1-.484-.465v-1.1A3.274,3.274,0,0,1,45.8,88.9a2.958,2.958,0,0,1-2.71-1.394,5.354,5.354,0,0,1-.416-2.729V79.825Z" transform="translate(-42.418 -79.118)" fill="#109972"/><path d="M49.175,89.136a.676.676,0,0,1-.726-.706v-.416a3.462,3.462,0,0,1-2.671,1.123,3.16,3.16,0,0,1-2.923-1.519,5.522,5.522,0,0,1-.445-2.845V79.816a.679.679,0,0,1,.726-.706.686.686,0,0,1,.726.706v4.848c0,1.829.145,3.116,2.023,3.116a2.536,2.536,0,0,0,2.2-1.171,3.751,3.751,0,0,0,.377-1.945V79.816a.726.726,0,0,1,1.452,0v8.613A.708.708,0,0,1,49.175,89.136Zm-.242-2.584v1.887c0,.106.029.223.242.223a.214.214,0,0,0,.242-.223V79.826c0-.145-.077-.223-.242-.223-.242,0-.242.165-.242.223v4.848a4.153,4.153,0,0,1-.455,2.206,3.032,3.032,0,0,1-2.6,1.4c-2.506,0-2.506-2.081-2.506-3.6V79.836c0-.145-.077-.223-.242-.223-.242,0-.242.165-.242.223v4.955a5.1,5.1,0,0,0,.387,2.613,2.677,2.677,0,0,0,2.5,1.268,3.037,3.037,0,0,0,2.71-1.461Z" transform="translate(-42.41 -79.11)" fill="#109972"/></g><g transform="translate(11.913 21.813)"><path d="M61.986,88.437a.484.484,0,0,1-.968,0V83.589c0-1.519,0-3.358-2.265-3.358a2.77,2.77,0,0,0-2.4,1.287,3.933,3.933,0,0,0-.416,2.071v4.848a.484.484,0,0,1-.968,0V79.825a.449.449,0,0,1,.484-.465.442.442,0,0,1,.484.465v1.1a3.274,3.274,0,0,1,2.913-1.568,2.959,2.959,0,0,1,2.71,1.394,5.354,5.354,0,0,1,.416,2.729v4.955Z" transform="translate(-54.728 -79.128)" fill="#109972"/><path d="M61.494,89.136a.686.686,0,0,1-.726-.706V83.581c0-1.829-.145-3.116-2.023-3.116a2.532,2.532,0,0,0-2.2,1.181,3.751,3.751,0,0,0-.377,1.945v4.848a.679.679,0,0,1-.726.706.686.686,0,0,1-.726-.706V79.826a.689.689,0,0,1,.726-.706.676.676,0,0,1,.726.706v.416a3.462,3.462,0,0,1,2.671-1.123,3.146,3.146,0,0,1,2.923,1.519,5.522,5.522,0,0,1,.445,2.845v4.955A.664.664,0,0,1,61.494,89.136Zm-2.739-9.155c2.506,0,2.506,2.081,2.506,3.6V88.43c0,.145.077.223.242.223.242,0,.242-.165.242-.223V83.475a5.146,5.146,0,0,0-.387-2.613,2.7,2.7,0,0,0-2.5-1.268,3.037,3.037,0,0,0-2.71,1.461l-.445.648V79.817c0-.106-.029-.223-.242-.223a.211.211,0,0,0-.242.223V88.43c0,.145.077.223.242.223.242,0,.242-.165.242-.223V83.581a4.153,4.153,0,0,1,.455-2.206A2.981,2.981,0,0,1,58.755,79.981Z" transform="translate(-54.72 -79.12)" fill="#109972"/></g><g transform="translate(23.361 21.803)"><path d="M67.768,84.46A3.34,3.34,0,0,0,71.4,88.041a5.661,5.661,0,0,0,1.965-.329,1.479,1.479,0,0,1,.416-.126.446.446,0,0,1,.435.435.483.483,0,0,1-.31.435,7.027,7.027,0,0,1-2.535.445c-3.765,0-4.558-2.932-4.558-4.713,0-2.632,1.5-4.829,4.074-4.829a4,4,0,0,1,3.89,4.152c0,.948-.639.948-1.316.948Zm5.681-.871c.2,0,.387,0,.387-.252,0-.619-.6-3.116-2.971-3.116-1.761,0-2.961,1.423-3.087,3.358h5.671Z" transform="translate(-66.558 -79.118)" fill="#109972"/><path d="M71.35,89.136c-3.532,0-4.8-2.555-4.8-4.955,0-2.99,1.771-5.071,4.316-5.071A4.213,4.213,0,0,1,75,83.5c0,1.19-.9,1.19-1.558,1.19H68.011a3.016,3.016,0,0,0,3.368,3.1,5.552,5.552,0,0,0,1.887-.31l.106-.039a1.116,1.116,0,0,1,.387-.1.685.685,0,0,1,.677.677.718.718,0,0,1-.455.658A7.47,7.47,0,0,1,71.35,89.136ZM70.866,79.6c-2.255,0-3.832,1.887-3.832,4.587,0,1.045.31,4.471,4.316,4.471a6.776,6.776,0,0,0,2.439-.426c.116-.048.174-.116.174-.213a.206.206,0,0,0-.194-.194,1.432,1.432,0,0,0-.232.068l-.106.039a6,6,0,0,1-2.052.339c-1.694,0-3.735-.658-3.871-3.813l-.01-.252H73.44c.745,0,1.074-.029,1.074-.706A3.731,3.731,0,0,0,70.866,79.6Zm2.574,4.219H67.518l.019-.261c.135-2.148,1.471-3.59,3.319-3.59,2.661,0,3.213,2.806,3.213,3.358C74.069,83.823,73.615,83.823,73.44,83.823Zm-5.4-.484h5.4a.888.888,0,0,0,.174-.01c-.029-.445-.532-2.865-2.758-2.865A2.911,2.911,0,0,0,68.04,83.339Z" transform="translate(-66.55 -79.11)" fill="#109972"/></g><g transform="translate(36 18.397)"><path d="M79.86,76.324a.449.449,0,0,1,.484-.484.455.455,0,0,1,.494.484V86.611c0,.59,0,1.065.832,1.065H82a.4.4,0,0,1,.416.435.4.4,0,0,1-.416.435h-.358c-1.723,0-1.781-.958-1.781-1.887Z" transform="translate(-79.618 -75.598)" fill="#109972"/><path d="M81.991,88.78h-.358c-2.023,0-2.023-1.335-2.023-2.129V76.316a.731.731,0,0,1,1.461,0V86.6c0,.639.029.823.59.823h.329a.638.638,0,0,1,.658.677A.63.63,0,0,1,81.991,88.78ZM80.336,76.074c-.242,0-.242.165-.242.242V86.651c0,1,.106,1.645,1.539,1.645h.358c.087,0,.174-.019.174-.194,0-.194-.135-.194-.174-.194h-.329c-1.074,0-1.074-.726-1.074-1.306V76.316C80.587,76.209,80.558,76.074,80.336,76.074Z" transform="translate(-79.61 -75.59)" fill="#109972"/></g><g transform="translate(42.3 21.794)"><path d="M87.348,80.927a2.89,2.89,0,0,1,2.661-1.568,2.63,2.63,0,0,1,2.623,1.684,3.228,3.228,0,0,1,2.884-1.684,2.686,2.686,0,0,1,2.661,1.723,6.516,6.516,0,0,1,.232,2.216v5.139a.484.484,0,0,1-.968,0V83.463c0-1.316,0-3.242-2.013-3.242a2.507,2.507,0,0,0-1.984.929,3.711,3.711,0,0,0-.59,2.323v4.955a.489.489,0,0,1-.977,0V83.444c0-1.335,0-3.223-1.994-3.223-.2,0-2.535,0-2.535,3.126v5.081a.438.438,0,0,1-.484.465.454.454,0,0,1-.484-.465V79.815a.484.484,0,0,1,.968,0Z" transform="translate(-86.128 -79.108)" fill="#109972"/><path d="M97.917,89.135a.684.684,0,0,1-.726-.706V83.455c0-1.635-.135-3-1.771-3a2.262,2.262,0,0,0-1.79.832,3.471,3.471,0,0,0-.542,2.177v4.955a.731.731,0,0,1-1.461,0V83.435c0-1.635-.135-2.981-1.752-2.981-.542,0-2.3.2-2.3,2.884v5.081a.676.676,0,0,1-.726.706.689.689,0,0,1-.726-.706V79.806a.726.726,0,0,1,1.452,0v.348A3.1,3.1,0,0,1,89.991,79.1a2.818,2.818,0,0,1,2.652,1.452A3.353,3.353,0,0,1,95.5,79.1a2.957,2.957,0,0,1,2.894,1.877,6.693,6.693,0,0,1,.242,2.294V88.41A.678.678,0,0,1,97.917,89.135ZM95.43,79.981c2.255,0,2.255,2.177,2.255,3.484v4.974c0,.058,0,.223.242.223.155,0,.242-.077.242-.223V83.3a6.093,6.093,0,0,0-.223-2.139A2.444,2.444,0,0,0,95.507,79.6a2.98,2.98,0,0,0-2.681,1.577l-.242.377-.184-.406A2.392,2.392,0,0,0,90,79.6a2.679,2.679,0,0,0-2.458,1.442l-.455.774v-2c0-.058,0-.223-.242-.223-.155,0-.242.077-.242.223v8.613c0,.184.126.223.242.223.213,0,.242-.116.242-.223V83.348c0-3.213,2.323-3.368,2.787-3.368,2.235,0,2.235,2.168,2.235,3.465v4.984c0,.184.126.223.242.223.252,0,.252-.165.252-.223V83.474a3.953,3.953,0,0,1,.639-2.468A2.786,2.786,0,0,1,95.43,79.981Z" transform="translate(-86.12 -79.1)" fill="#109972"/></g><g transform="translate(58.771 21.803)"><path d="M110.629,87.034a3.687,3.687,0,0,0,.1.91c.029.135.135.435.135.513a.483.483,0,0,1-.513.445c-.619,0-.677-1.084-.677-1.81a4.062,4.062,0,0,1-3.426,1.81,2.593,2.593,0,0,1-2.855-2.632c0-1.239.6-2.448,2.855-2.835.406-.077,2.235-.31,2.584-.406a.9.9,0,0,0,.823-1.006c0-1.268-1.258-1.8-2.584-1.8a4.436,4.436,0,0,0-1.994.406c-.29.135-.368.174-.484.174a.4.4,0,0,1-.406-.416c0-.29.232-.406.571-.561a5.715,5.715,0,0,1,2.294-.465,3.88,3.88,0,0,1,3.039,1.19,3.234,3.234,0,0,1,.542,2.187Zm-.958-3.474c-.387.252-.6.29-2.506.571-1.394.213-2.806.416-2.806,2.11a1.717,1.717,0,0,0,1.965,1.8,3.682,3.682,0,0,0,3.348-2.323Z" transform="translate(-103.148 -79.118)" fill="#109972"/><path d="M110.34,89.136c-.658,0-.842-.755-.9-1.394a4.26,4.26,0,0,1-3.2,1.394,2.828,2.828,0,0,1-3.1-2.874c0-1.694,1.026-2.729,3.048-3.077.165-.029.561-.087,1.006-.155.61-.087,1.355-.194,1.558-.242.319-.077.639-.155.639-.774,0-1.152-1.21-1.558-2.342-1.558a4.3,4.3,0,0,0-1.887.377,1.339,1.339,0,0,1-.59.194.651.651,0,0,1-.648-.658c0-.455.368-.619.716-.774a6,6,0,0,1,2.39-.484,4.029,4.029,0,0,1,3.223,1.287,3.437,3.437,0,0,1,.59,2.332v4.287a4.314,4.314,0,0,0,.087.861c.01.058.039.135.058.213a1.249,1.249,0,0,1,.087.348A.686.686,0,0,1,110.34,89.136ZM109.9,86.32v.765c0,1.365.271,1.568.435,1.568.087,0,.271-.048.271-.2a1.813,1.813,0,0,1-.058-.213,2.016,2.016,0,0,1-.068-.252,4.465,4.465,0,0,1-.1-.968V82.729A3,3,0,0,0,109.9,80.7a3.6,3.6,0,0,0-2.845-1.1,5.583,5.583,0,0,0-2.2.445c-.358.165-.426.213-.426.339a.162.162,0,0,0,.165.174,1.144,1.144,0,0,0,.377-.145,4.786,4.786,0,0,1,2.1-.426c1.723,0,2.826.8,2.826,2.042a1.125,1.125,0,0,1-1.006,1.239c-.223.058-.929.155-1.606.252-.435.058-.832.116-.987.145-1.79.31-2.652,1.161-2.652,2.594a2.351,2.351,0,0,0,2.613,2.39,3.8,3.8,0,0,0,3.223-1.713Zm-3.59,1.955a1.953,1.953,0,0,1-2.206-2.042c0-1.877,1.577-2.119,2.961-2.342,1.916-.281,2.119-.329,2.458-.542l.368-.242-.019,2.69A3.926,3.926,0,0,1,106.314,88.275Zm3.106-4.326a12.86,12.86,0,0,1-2.235.416c-1.413.223-2.594.406-2.594,1.868,0,.581.223,1.558,1.723,1.558a3.48,3.48,0,0,0,3.106-2.129Z" transform="translate(-103.14 -79.11)" fill="#109972"/></g></g><path d="M23.188,109.866a2.714,2.714,0,0,1-.619-.077,2.651,2.651,0,0,1-1.752-3.3l8.671-32.352a8.826,8.826,0,0,1-1.142-7.016l.677-2.535a.539.539,0,0,1,.019-.232l2.981-11.119c.155-.561.948-1.548,1.606-1.374s.765,1.3.629,1.819L31.53,63.859a.322.322,0,0,0,.213.261.332.332,0,0,0,.223-.039.521.521,0,0,0,.232-.329l2.642-9.774a2.4,2.4,0,0,1,1-1.258.8.8,0,0,1,.61-.116,1,1,0,0,1,.639.813,2.13,2.13,0,0,1,.01.987L34.365,64.6a.344.344,0,0,0,.223.271.328.328,0,0,0,.29-.1l2.7-10.074c.155-.561.948-1.548,1.606-1.374.706.194.765,1.481.629,1.974L37.094,65.446a.274.274,0,0,0,.165.145.341.341,0,0,0,.329-.126l2.652-9.9c.1-.368.765-1.742,1.51-1.539.387.106.581.552.668.91a2.4,2.4,0,0,1,.039,1.084L38.739,69.888a8.825,8.825,0,0,1-4.287,5.41l-8.71,32.487a2.829,2.829,0,0,1-1.21,1.665A2.392,2.392,0,0,1,23.188,109.866Zm10.239-57.3a1.868,1.868,0,0,0-.7.861l-2.981,11.11a.473.473,0,0,0-.01.126l-.01.106L29.052,67.3a7.941,7.941,0,0,0,1.123,6.523l.116.145-8.758,32.7a1.919,1.919,0,0,0,1.239,2.41,1.759,1.759,0,0,0,1.384-.223,2.088,2.088,0,0,0,.89-1.239l8.8-32.826L34,74.727a8.015,8.015,0,0,0,4.045-5l3.716-13.868a1.751,1.751,0,0,0-.174-1.074,2.433,2.433,0,0,0-.639,1L38.217,65.863a1.069,1.069,0,0,1-1.142.455,1.023,1.023,0,0,1-.7-.706l-.029-.106L39.126,55.14a1.694,1.694,0,0,0-.145-1.094,2.013,2.013,0,0,0-.687.871l-2.8,10.3a1.055,1.055,0,0,1-1.084.387,1.075,1.075,0,0,1-.765-.958l-.019-.068L36.4,54.23a1.178,1.178,0,0,0-.145-.91,1.822,1.822,0,0,0-.706.861L32.9,63.956a1.253,1.253,0,0,1-.571.765,1.036,1.036,0,0,1-.774.106,1.065,1.065,0,0,1-.755-.939l-.01-.068,2.768-10.326A1.247,1.247,0,0,0,33.426,52.566Z" transform="translate(-20.718 -29.599)" fill="#109972"/><path d="M131.469,109.54a2.2,2.2,0,0,1-1.277-.426,2.907,2.907,0,0,1-1.123-1.635l-7.094-26.487c-1.3-.2-2.971-1.848-3.61-4.268l-2.526-9.445c-1.761-6.59-1.761-13.887,1.306-14.71.426-.116,1.094-.048,1.829.91a5.985,5.985,0,0,1,.939,1.916l13.636,50.884a2.511,2.511,0,0,1-1.539,3.184A1.789,1.789,0,0,1,131.469,109.54Zm-8.932-29.255,7.239,27.01a2.151,2.151,0,0,0,.832,1.229,1.453,1.453,0,0,0,1.21.242,1.8,1.8,0,0,0,1.026-2.3L119.208,55.578a5.053,5.053,0,0,0-.823-1.665c-.223-.29-.648-.755-1.064-.648h0c-2.235.6-2.6,7.055-.794,13.829l2.526,9.445c.629,2.342,2.255,3.745,3.165,3.745h.319Z" transform="translate(-23.748 -29.621)" fill="#109972"/><path d="M59.521,101.791s6.271,8.758,19.248,7.945c0,0,7.452-.126,10.616-6.765,0,0,1.365-4.471,4.035-3.784,0,0,2.923,1.055,1.113,4.529,0,0-1.8,2.487-8.013,5.468,0,0-6.455,3.232-16.084,1,0,0-8.381-2.361-11.235-6.89C59.212,103.281,57.779,101.975,59.521,101.791Z" transform="translate(-21.942 -31.124)" fill="#109972"/></svg>