<svg xmlns="http://www.w3.org/2000/svg" width="30" height="30" viewBox="0 0 30 30"><path d="M23.237,30H6.763A6.763,6.763,0,0,1,0,23.237V6.763A6.763,6.763,0,0,1,6.763,0H23.237A6.763,6.763,0,0,1,30,6.763V23.237A6.763,6.763,0,0,1,23.237,30Z" fill="#06c755"/><g transform="translate(4.995 5.469)"><path d="M73.284,66.457c0-4.476-4.487-8.117-10-8.117s-10,3.641-10,8.117c0,4.013,3.559,7.373,8.365,8.008.325.07.769.215.881.493a2.063,2.063,0,0,1,.033.9s-.117.706-.143.856c-.044.253-.2.989.866.539a32.293,32.293,0,0,0,7.858-5.807h0A7.224,7.224,0,0,0,73.284,66.457Z" transform="translate(-53.28 -58.34)" fill="#fff"/><g transform="translate(3.28 5.953)"><path d="M202.151,126.607h-2.81a.191.191,0,0,1-.191-.191v0h0v-4.357h0v0a.191.191,0,0,1,.191-.191h2.81a.192.192,0,0,1,.191.191v.71a.191.191,0,0,1-.191.191h-1.91v.737h1.91a.192.192,0,0,1,.191.191v.71a.191.191,0,0,1-.191.191h-1.91v.737h1.91a.192.192,0,0,1,.191.191v.71A.19.19,0,0,1,202.151,126.607Z" transform="translate(-188.755 -121.858)" fill="#06c755"/><path d="M91.272,126.588a.191.191,0,0,0,.191-.191v-.71a.192.192,0,0,0-.191-.191h-1.91v-3.465a.192.192,0,0,0-.191-.191h-.71a.191.191,0,0,0-.191.191v4.362h0v0a.191.191,0,0,0,.191.191h2.811Z" transform="translate(-88.27 -121.84)" fill="#06c755"/><path d="M129.621,121.85h-.71a.191.191,0,0,0-.191.191v4.365a.191.191,0,0,0,.191.191h.71a.191.191,0,0,0,.191-.191v-4.365A.191.191,0,0,0,129.621,121.85Z" transform="translate(-124.928 -121.849)" fill="#06c755"/><path d="M151.605,121.85h-.71a.191.191,0,0,0-.191.191v2.592l-2-2.7-.015-.02h0l-.011-.012,0,0-.01-.008-.006,0a.038.038,0,0,0-.01-.007l-.006,0-.01-.006-.006,0-.011,0-.007,0-.011,0-.007,0-.011,0h-.741a.191.191,0,0,0-.191.191v4.365a.191.191,0,0,0,.191.191h.71a.191.191,0,0,0,.191-.191v-2.592l2,2.7a.185.185,0,0,0,.05.048l0,0,.012.007.006,0,.009,0,.009,0,.006,0,.013,0h0a.219.219,0,0,0,.05.007h.7a.191.191,0,0,0,.191-.191v-4.365A.193.193,0,0,0,151.605,121.85Z" transform="translate(-142.083 -121.849)" fill="#06c755"/></g></g></svg>