<svg xmlns="http://www.w3.org/2000/svg" viewBox="0 0 30.109 30"><g transform="translate(0.002)"><path d="M36.952,46.284a11.8,11.8,0,1,1,11.8-11.8A11.815,11.815,0,0,1,36.952,46.284Zm0-22.57A10.768,10.768,0,1,0,47.72,34.482,10.779,10.779,0,0,0,36.952,23.714Z" transform="translate(-21.9 -19.747)"/><g transform="translate(-0.002 0.803)"><path d="M1.7,14.142h0a.518.518,0,0,1-.366-.151,4.566,4.566,0,0,1,0-6.45h0a4.566,4.566,0,0,1,6.45,0,.518.518,0,0,1,0,.732L2.063,13.991A.518.518,0,0,1,1.7,14.142Z" transform="translate(0.002 -6.208)"/></g><g transform="translate(22.17 0.802)"><path d="M177.707,14.134a.517.517,0,0,1-.366-.151l-5.719-5.719a.518.518,0,0,1,0-.732,4.566,4.566,0,0,1,6.45,0h0a4.561,4.561,0,0,1,0,6.45A.508.508,0,0,1,177.707,14.134Z" transform="translate(-171.47 -6.198)"/></g><g transform="translate(3.727 25.827)"><path d="M29.349,203.9a.518.518,0,0,1-.388-.86l2.762-3.137a.518.518,0,1,1,.777.684l-2.762,3.137A.519.519,0,0,1,29.349,203.9Z" transform="translate(-28.832 -199.732)"/><path d="M177.931,203.9a.514.514,0,0,1-.388-.176l-2.762-3.137a.518.518,0,1,1,.777-.684l2.762,3.137a.518.518,0,0,1-.389.86Z" transform="translate(-155.796 -199.732)"/></g><path d="M112.937,86.569a.517.517,0,0,1-.517-.517V80.977a.517.517,0,0,1,1.034,0V85.22l2.556-1.257a.517.517,0,1,1,.455.928l-3.3,1.623A.5.5,0,0,1,112.937,86.569Z" transform="translate(-97.885 -70.056)"/><path d="M111.414,42.42a.785.785,0,0,1-.145-.014.871.871,0,0,1-.14-.043.759.759,0,0,1-.128-.069.716.716,0,0,1-.114-.093.775.775,0,0,1-.092-.112.729.729,0,0,1-.069-.129.669.669,0,0,1-.043-.14.679.679,0,0,1-.014-.145.7.7,0,0,1,.014-.146.682.682,0,0,1,.043-.138.729.729,0,0,1,.069-.129.774.774,0,0,1,.092-.112.745.745,0,0,1,1.054,0,.774.774,0,0,1,.092.112.729.729,0,0,1,.069.129.9.9,0,0,1,.043.138.8.8,0,0,1,.014.146.775.775,0,0,1-.014.145.871.871,0,0,1-.043.14.73.73,0,0,1-.069.129.774.774,0,0,1-.092.112A.755.755,0,0,1,111.414,42.42Z" transform="translate(-96.361 -35.638)"/><path d="M63.855,62.117a.692.692,0,0,1-.146-.016.753.753,0,0,1-.14-.041.935.935,0,0,1-.128-.069.653.653,0,0,1-.112-.093.706.706,0,0,1-.093-.112.729.729,0,0,1-.069-.129.9.9,0,0,1-.043-.138.8.8,0,0,1-.014-.146.744.744,0,0,1,.219-.526.653.653,0,0,1,.112-.093.935.935,0,0,1,.128-.069.871.871,0,0,1,.14-.043.735.735,0,0,1,.291,0,.748.748,0,0,1,.268.111.716.716,0,0,1,.114.093.748.748,0,0,1,.217.526.7.7,0,0,1-.014.146.658.658,0,0,1-.043.138.729.729,0,0,1-.069.129.774.774,0,0,1-.092.112.715.715,0,0,1-.114.093.866.866,0,0,1-.128.069A.753.753,0,0,1,64,62.1.689.689,0,0,1,63.855,62.117Z" transform="translate(-54.951 -52.788)"/><path d="M44.155,109.68a.692.692,0,0,1-.146-.016.669.669,0,0,1-.14-.043.718.718,0,0,1-.128-.069.775.775,0,0,1-.112-.092.746.746,0,0,1-.219-.526.788.788,0,0,1,.014-.146.856.856,0,0,1,.043-.138.771.771,0,0,1,.069-.129.706.706,0,0,1,.093-.113.743.743,0,0,1,1.053,0,.7.7,0,0,1,.092.113.687.687,0,0,1,.069.129.658.658,0,0,1,.043.138.692.692,0,0,1,.016.146.752.752,0,0,1-.219.526.786.786,0,0,1-.114.092.748.748,0,0,1-.268.111A.689.689,0,0,1,44.155,109.68Z" transform="translate(-37.799 -94.2)"/><path d="M63.855,157.236a.789.789,0,0,1-.146-.014.67.67,0,0,1-.14-.043.737.737,0,0,1-.334-.274.676.676,0,0,1-.069-.128.871.871,0,0,1-.043-.14.751.751,0,0,1,0-.291.871.871,0,0,1,.043-.14.745.745,0,0,1,.4-.4.669.669,0,0,1,.14-.043.734.734,0,0,1,.291,0,.748.748,0,0,1,.268.111.785.785,0,0,1,.114.092.751.751,0,0,1,.217.528.688.688,0,0,1-.014.145.669.669,0,0,1-.043.14.676.676,0,0,1-.069.128.687.687,0,0,1-.206.206.748.748,0,0,1-.268.111A.784.784,0,0,1,63.855,157.236Z" transform="translate(-54.951 -135.607)"/><path d="M111.414,176.938a.785.785,0,0,1-.145-.014.87.87,0,0,1-.14-.043.675.675,0,0,1-.128-.069.688.688,0,0,1-.206-.206.717.717,0,0,1-.069-.128.669.669,0,0,1-.043-.14.751.751,0,0,1,0-.291.669.669,0,0,1,.043-.14.677.677,0,0,1,.069-.128.785.785,0,0,1,.092-.114.748.748,0,0,1,1.054,0,.785.785,0,0,1,.092.114.677.677,0,0,1,.069.128.871.871,0,0,1,.043.14.751.751,0,0,1,0,.291.871.871,0,0,1-.043.14.718.718,0,0,1-.069.128.785.785,0,0,1-.092.114A.753.753,0,0,1,111.414,176.938Z" transform="translate(-96.361 -152.763)"/><path d="M158.974,157.238a.75.75,0,0,1-.526-.217.716.716,0,0,1-.093-.114.8.8,0,0,1-.067-.128.671.671,0,0,1-.043-.14.751.751,0,0,1,0-.291.67.67,0,0,1,.043-.14.753.753,0,0,1,.067-.128.715.715,0,0,1,.093-.114.746.746,0,0,1,1.053,0,.715.715,0,0,1,.093.114.812.812,0,0,1,.069.128.872.872,0,0,1,.043.14.751.751,0,0,1,0,.291.873.873,0,0,1-.043.14.812.812,0,0,1-.069.128.715.715,0,0,1-.093.114.776.776,0,0,1-.113.092.728.728,0,0,1-.129.069.659.659,0,0,1-.138.043A.789.789,0,0,1,158.974,157.238Z" transform="translate(-137.771 -135.609)"/><path d="M178.665,109.679a.689.689,0,0,1-.145-.016.67.67,0,0,1-.14-.043.729.729,0,0,1-.129-.069.774.774,0,0,1-.113-.092.716.716,0,0,1-.093-.114.864.864,0,0,1-.069-.128.752.752,0,0,1-.041-.14.69.69,0,0,1,0-.291.739.739,0,0,1,.041-.138.879.879,0,0,1,.069-.129.777.777,0,0,1,.206-.206.73.73,0,0,1,.129-.069.871.871,0,0,1,.14-.043.747.747,0,0,1,.671.2.706.706,0,0,1,.093.113.772.772,0,0,1,.069.129.739.739,0,0,1,.041.138.69.69,0,0,1,0,.291.716.716,0,0,1-.11.268.716.716,0,0,1-.093.114.775.775,0,0,1-.113.092.729.729,0,0,1-.129.069.658.658,0,0,1-.138.043A.7.7,0,0,1,178.665,109.679Z" transform="translate(-154.916 -94.199)"/><path d="M158.974,62.12a.752.752,0,0,1-.526-.219.706.706,0,0,1-.093-.112.818.818,0,0,1-.067-.129.659.659,0,0,1-.043-.138.7.7,0,0,1-.014-.146.679.679,0,0,1,.014-.145.67.67,0,0,1,.043-.14.817.817,0,0,1,.067-.129.706.706,0,0,1,.093-.112.743.743,0,0,1,1.053,0,.705.705,0,0,1,.093.112.824.824,0,0,1,.069.129.872.872,0,0,1,.043.14.786.786,0,0,1,.014.145.8.8,0,0,1-.014.146.857.857,0,0,1-.043.138.824.824,0,0,1-.069.129.777.777,0,0,1-.206.206.949.949,0,0,1-.129.069.856.856,0,0,1-.138.043A.788.788,0,0,1,158.974,62.12Z" transform="translate(-137.771 -52.79)"/><path d="M98.428,1.034H93.367a.517.517,0,1,1,0-1.034h5.061a.517.517,0,1,1,0,1.034Z" transform="translate(-80.846)"/></g></svg>