<svg xmlns="http://www.w3.org/2000/svg" viewBox="0 0 21.725 30"><g transform="translate(5.992 7.297)"><path d="M78.668,66.123h-.4a.435.435,0,0,1-.434-.434v-3.05a.1.1,0,0,0-.067-.084,2.017,2.017,0,0,0-.2-.059,1.313,1.313,0,0,1-.626-.283l-.012-.013a.763.763,0,0,1-.234-.551c.014-1.011.113-3.794.116-3.9a1.138,1.138,0,0,1,1.116-1.227h.736a.435.435,0,0,1,.434.434v8.731A.436.436,0,0,1,78.668,66.123Zm-.736-9.27a.811.811,0,0,0-.785.9v.006c0,.028-.1,2.875-.116,3.9a.432.432,0,0,0,.144.319l.014.016a1.156,1.156,0,0,0,.466.186,1.713,1.713,0,0,1,.246.075.428.428,0,0,1,.269.389v3.05a.1.1,0,0,0,.1.1h.4a.1.1,0,0,0,.1-.1V56.956a.1.1,0,0,0-.1-.1Z" transform="translate(-72.771 -56.508)"/><path d="M48.072,66.044h-.48a.386.386,0,0,1-.385-.385V61.218a.931.931,0,0,1-.887-1.024v0l.091-3.445a.327.327,0,0,1,.326-.316h.158a.326.326,0,0,1,.326.326l0,1.919a.085.085,0,0,0,.041.017h.022a.1.1,0,0,0,.043-.017l.1-1.929c.006-.233.149-.316.279-.316h.212c.131,0,.273.083.281.316l.1,1.929a.089.089,0,0,0,.043.017h.022a.094.094,0,0,0,.041-.017l0-1.918a.292.292,0,0,1,.29-.327h.222a.326.326,0,0,1,.327.313l.091,3.447v0a.931.931,0,0,1-.887,1.024v4.439A.387.387,0,0,1,48.072,66.044ZM46.651,60.2c0,.319.153.691.579.691h.142a.165.165,0,0,1,.166.166v4.6a.055.055,0,0,0,.054.054h.48a.055.055,0,0,0,.054-.054v-4.6a.165.165,0,0,1,.166-.166h.142c.427,0,.579-.372.579-.692l-.091-3.436h-.175l0,1.929a.3.3,0,0,1-.088.211.409.409,0,0,1-.284.123H48.35a.369.369,0,0,1-.374-.314l-.1-1.949h-.11l-.1,1.951a.369.369,0,0,1-.374.312h-.022a.409.409,0,0,1-.284-.123.294.294,0,0,1-.088-.209l0-1.929H46.74Zm.679-1.5h0Zm.978,0h0Zm.275-1.937Z" transform="translate(-46.32 -56.43)"/></g><path d="M15.261,23.938H2.823A2.826,2.826,0,0,1,0,21.115V2.823A2.826,2.826,0,0,1,2.823,0H15.261a2.826,2.826,0,0,1,2.823,2.823V21.115A2.826,2.826,0,0,1,15.261,23.938ZM2.823,1.034A1.79,1.79,0,0,0,1.034,2.823V21.115A1.79,1.79,0,0,0,2.823,22.9H15.261a1.79,1.79,0,0,0,1.788-1.788V2.823a1.79,1.79,0,0,0-1.788-1.788Z"/><path d="M18.873,29.7H1.823a.323.323,0,1,1,0-.647h17.05a.323.323,0,1,1,0,.647Z" transform="translate(-1.306 -25.294)"/><path d="M14.146,153.8H4.963a.323.323,0,1,1,0-.647h9.182a.323.323,0,1,1,0,.647Z" transform="translate(-4.04 -133.346)"/><g transform="translate(8.455 13.131)"><path d="M72.121,120.271c-.808-1-1.182-3.348-2.22-4.624-.68-.837-.674-2.041-.048-2.2,1.333-.343,2.8,1.43,2.8,1.43v-8.152c0-1.516,2.615-1.559,2.6-.048-.021,1.744,0,4.838,0,4.838a1.9,1.9,0,0,1,2.184.537,1.86,1.86,0,0,1,2.162.478,1.742,1.742,0,0,1,2.024,1.839v4.156a3.867,3.867,0,0,1-1.213,2.586.968.968,0,0,1-.691.288h-5.6a1.3,1.3,0,0,1-.656-.177A6.713,6.713,0,0,1,72.121,120.271Z" transform="translate(-68.869 -105.045)" fill="#fff"/><path d="M76.234,118.419h-5.6a1.825,1.825,0,0,1-.917-.247,5.206,5.206,0,0,1-1.487-1.069h0a8.078,8.078,0,0,1-1.047-2.191,8.951,8.951,0,0,0-1.173-2.434,2.575,2.575,0,0,1-.546-2.264,1.1,1.1,0,0,1,.771-.766,2.9,2.9,0,0,1,2.414.724v-6.944a1.59,1.59,0,0,1,.822-1.412,2.094,2.094,0,0,1,2.042,0,1.53,1.53,0,0,1,.768,1.372c-.014,1.249-.008,3.213,0,4.208a2.264,2.264,0,0,1,1.806.556,2.458,2.458,0,0,1,2.207.522,2.043,2.043,0,0,1,1.389.414,2.44,2.44,0,0,1,.971,1.985v4.156a4.382,4.382,0,0,1-1.363,2.951A1.482,1.482,0,0,1,76.234,118.419Zm-7.2-1.969a5.925,5.925,0,0,0,1.205.828.782.782,0,0,0,.4.106h5.6a.451.451,0,0,0,.323-.136,3.36,3.36,0,0,0,1.064-2.222v-4.156a1.416,1.416,0,0,0-.553-1.155.932.932,0,0,0-.8-.189.518.518,0,0,1-.555-.175,1.351,1.351,0,0,0-1.519-.339.516.516,0,0,1-.634-.129,1.4,1.4,0,0,0-1.647-.37.518.518,0,0,1-.451-.085.512.512,0,0,1-.206-.41c0-.031-.019-3.118,0-4.847a.489.489,0,0,0-.257-.468,1.073,1.073,0,0,0-1,.008.553.553,0,0,0-.3.515v8.152a.517.517,0,0,1-.916.33c-.328-.394-1.452-1.472-2.276-1.259a.35.35,0,0,0-.07.2,1.664,1.664,0,0,0,.389,1.177,9.683,9.683,0,0,1,1.341,2.727,7.448,7.448,0,0,0,.878,1.9Z" transform="translate(-65.384 -101.55)"/></g></svg>