<svg xmlns="http://www.w3.org/2000/svg" viewBox="0 0 30.408 30"><g transform="translate(0.005)"><path d="M27.6,74.466H2.8A2.8,2.8,0,0,1,.011,71.36L1.964,53.511A2.735,2.735,0,0,1,4.687,51.07H25.71a2.736,2.736,0,0,1,2.723,2.441L30.386,71.36A2.8,2.8,0,0,1,27.6,74.466ZM4.687,52.1a1.7,1.7,0,0,0-1.7,1.519L1.04,71.473A1.767,1.767,0,0,0,2.8,73.432H27.6a1.767,1.767,0,0,0,1.756-1.959L27.4,53.624a1.7,1.7,0,0,0-1.7-1.519Z" transform="translate(0 -44.466)" /><path d="M85.843,12.656a.517.517,0,0,1-.517-.517V5.885a4.85,4.85,0,1,0-9.7,0v6.252a.517.517,0,0,1-1.034,0V5.885a5.885,5.885,0,0,1,11.77,0v6.252A.517.517,0,0,1,85.843,12.656Z" transform="translate(-64.949)"/><path d="M67.091,91.752a1.571,1.571,0,1,1,1.571-1.571A1.573,1.573,0,0,1,67.091,91.752Zm0-2.108a.537.537,0,1,0,.537.537A.537.537,0,0,0,67.091,89.644Z" transform="translate(-57.052 -77.152)"/><path d="M151.031,91.752a1.571,1.571,0,1,1,1.571-1.571A1.573,1.573,0,0,1,151.031,91.752Zm0-2.108a.537.537,0,1,0,.537.537A.537.537,0,0,0,151.031,89.644Z" transform="translate(-130.138 -77.152)"/></g></svg>